<svg id="visual" viewBox="0 0 900 250" width="900" height="250" xmlns="http://www.w3.org/2000/svg" xmlns:xlink="http://www.w3.org/1999/xlink" version="1.1"><path d="M0 193L21.5 186.7C43 180.3 86 167.7 128.8 163.5C171.7 159.3 214.3 163.7 257.2 171.7C300 179.7 343 191.3 385.8 195.5C428.7 199.7 471.3 196.3 514.2 194.7C557 193 600 193 642.8 188C685.7 183 728.3 173 771.2 161.8C814 150.7 857 138.3 878.5 132.2L900 126L900 0L878.5 0C857 0 814 0 771.2 0C728.3 0 685.7 0 642.8 0C600 0 557 0 514.2 0C471.3 0 428.7 0 385.8 0C343 0 300 0 257.2 0C214.3 0 171.7 0 128.8 0C86 0 43 0 21.5 0L0 0Z" fill="#b76ad8"></path><path d="M0 158L21.5 154C43 150 86 142 128.8 142.8C171.7 143.7 214.3 153.3 257.2 154.2C300 155 343 147 385.8 139.8C428.7 132.7 471.3 126.3 514.2 122.3C557 118.3 600 116.7 642.8 120.5C685.7 124.3 728.3 133.7 771.2 140.7C814 147.7 857 152.3 878.5 154.7L900 157L900 0L878.5 0C857 0 814 0 771.2 0C728.3 0 685.7 0 642.8 0C600 0 557 0 514.2 0C471.3 0 428.7 0 385.8 0C343 0 300 0 257.2 0C214.3 0 171.7 0 128.8 0C86 0 43 0 21.5 0L0 0Z" fill="#a859ca"></path><path d="M0 121L21.5 116.2C43 111.3 86 101.7 128.8 96.5C171.7 91.3 214.3 90.7 257.2 92.8C300 95 343 100 385.8 103.5C428.7 107 471.3 109 514.2 104.7C557 100.3 600 89.7 642.8 90.7C685.7 91.7 728.3 104.3 771.2 109.2C814 114 857 111 878.5 109.5L900 108L900 0L878.5 0C857 0 814 0 771.2 0C728.3 0 685.7 0 642.8 0C600 0 557 0 514.2 0C471.3 0 428.7 0 385.8 0C343 0 300 0 257.2 0C214.3 0 171.7 0 128.8 0C86 0 43 0 21.5 0L0 0Z" fill="#9947bd"></path><path d="M0 52L21.5 51.2C43 50.3 86 48.7 128.8 54.7C171.7 60.7 214.3 74.3 257.2 82.5C300 90.7 343 93.3 385.8 90.2C428.7 87 471.3 78 514.2 73.2C557 68.3 600 67.7 642.8 65.5C685.7 63.3 728.3 59.7 771.2 64.7C814 69.7 857 83.3 878.5 90.2L900 97L900 0L878.5 0C857 0 814 0 771.2 0C728.3 0 685.7 0 642.8 0C600 0 557 0 514.2 0C471.3 0 428.7 0 385.8 0C343 0 300 0 257.2 0C214.3 0 171.7 0 128.8 0C86 0 43 0 21.5 0L0 0Z" fill="#8a34af"></path><path d="M0 57L21.5 50.8C43 44.7 86 32.3 128.8 30.2C171.7 28 214.3 36 257.2 40.2C300 44.3 343 44.7 385.8 44.3C428.7 44 471.3 43 514.2 41.8C557 40.7 600 39.3 642.8 41.5C685.7 43.7 728.3 49.3 771.2 50.5C814 51.7 857 48.3 878.5 46.7L900 45L900 0L878.5 0C857 0 814 0 771.2 0C728.3 0 685.7 0 642.8 0C600 0 557 0 514.2 0C471.3 0 428.7 0 385.8 0C343 0 300 0 257.2 0C214.3 0 171.7 0 128.8 0C86 0 43 0 21.5 0L0 0Z" fill="#7b1fa2"></path></svg>