<svg id="visual" viewBox="0 0 900 100" width="900" height="100" xmlns="http://www.w3.org/2000/svg" xmlns:xlink="http://www.w3.org/1999/xlink" version="1.1"><path d="M0 77L21.5 74.3C43 71.7 86 66.3 128.8 64.7C171.7 63 214.3 65 257.2 68.2C300 71.3 343 75.7 385.8 77.3C428.7 79 471.3 78 514.2 77.5C557 77 600 77 642.8 75C685.7 73 728.3 69 771.2 64.5C814 60 857 55 878.5 52.5L900 50L900 0L878.5 0C857 0 814 0 771.2 0C728.3 0 685.7 0 642.8 0C600 0 557 0 514.2 0C471.3 0 428.7 0 385.8 0C343 0 300 0 257.2 0C214.3 0 171.7 0 128.8 0C86 0 43 0 21.5 0L0 0Z" fill="#b76ad8"></path><path d="M0 63L21.5 61.3C43 59.7 86 56.3 128.8 56.5C171.7 56.7 214.3 60.3 257.2 60.7C300 61 343 58 385.8 55.2C428.7 52.3 471.3 49.7 514.2 48C557 46.3 600 45.7 642.8 47.3C685.7 49 728.3 53 771.2 55.8C814 58.7 857 60.3 878.5 61.2L900 62L900 0L878.5 0C857 0 814 0 771.2 0C728.3 0 685.7 0 642.8 0C600 0 557 0 514.2 0C471.3 0 428.7 0 385.8 0C343 0 300 0 257.2 0C214.3 0 171.7 0 128.8 0C86 0 43 0 21.5 0L0 0Z" fill="#a859ca"></path><path d="M0 48L21.5 46C43 44 86 40 128.8 38C171.7 36 214.3 36 257.2 36.8C300 37.7 343 39.3 385.8 40.7C428.7 42 471.3 43 514.2 41.3C557 39.7 600 35.3 642.8 35.7C685.7 36 728.3 41 771.2 43C814 45 857 44 878.5 43.5L900 43L900 0L878.5 0C857 0 814 0 771.2 0C728.3 0 685.7 0 642.8 0C600 0 557 0 514.2 0C471.3 0 428.7 0 385.8 0C343 0 300 0 257.2 0C214.3 0 171.7 0 128.8 0C86 0 43 0 21.5 0L0 0Z" fill="#9947bd"></path><path d="M0 20L21.5 19.7C43 19.3 86 18.7 128.8 21.2C171.7 23.7 214.3 29.3 257.2 32.7C300 36 343 37 385.8 35.7C428.7 34.3 471.3 30.7 514.2 28.7C557 26.7 600 26.3 642.8 25.5C685.7 24.7 728.3 23.3 771.2 25.3C814 27.3 857 32.7 878.5 35.3L900 38L900 0L878.5 0C857 0 814 0 771.2 0C728.3 0 685.7 0 642.8 0C600 0 557 0 514.2 0C471.3 0 428.7 0 385.8 0C343 0 300 0 257.2 0C214.3 0 171.7 0 128.8 0C86 0 43 0 21.5 0L0 0Z" fill="#8a34af"></path><path d="M0 22L21.5 19.5C43 17 86 12 128.8 11.2C171.7 10.3 214.3 13.7 257.2 15.3C300 17 343 17 385.8 16.8C428.7 16.7 471.3 16.3 514.2 15.8C557 15.3 600 14.7 642.8 15.5C685.7 16.3 728.3 18.7 771.2 19.2C814 19.7 857 18.3 878.5 17.7L900 17L900 0L878.5 0C857 0 814 0 771.2 0C728.3 0 685.7 0 642.8 0C600 0 557 0 514.2 0C471.3 0 428.7 0 385.8 0C343 0 300 0 257.2 0C214.3 0 171.7 0 128.8 0C86 0 43 0 21.5 0L0 0Z" fill="#7b1fa2"></path></svg>